<?xml version="1.0" standalone="no"?><!DOCTYPE svg PUBLIC "-//W3C//DTD SVG 1.1//EN" "http://www.w3.org/Graphics/SVG/1.1/DTD/svg11.dtd"><svg t="1622793575931" class="icon" viewBox="0 0 1024 1024" version="1.1" xmlns="http://www.w3.org/2000/svg" p-id="598" data-darkreader-inline-fill="" xmlns:xlink="http://www.w3.org/1999/xlink" width="200" height="200"><defs><style type="text/css">[data-darkreader-inline-fill] { fill: var(--darkreader-inline-fill)  !important; }
</style></defs><path d="M236.1 757.3l533.6-524 25.9 26.6-533.7 524z" fill="#1296db" p-id="599" data-darkreader-inline-fill="" style="--darkreader-inline-fill:#6d9db5;"></path><path d="M837.2 66.4c-66.8 0-121 54.2-121 121s54.2 121 121 121 121-54.2 121-121-54.2-121-121-121z m-0.1 203.5c-45.7 0-82.7-37-82.7-82.7s37-82.7 82.7-82.7 82.7 37 82.7 82.7-37 82.7-82.7 82.7zM185 717.3c-66.8 0-121 54.2-121 121s54.2 121 121 121 121-54.2 121-121-54.2-121-121-121z m-0.1 203.6c-45.7 0-82.7-37-82.7-82.7s37-82.7 82.7-82.7 82.7 37 82.7 82.7-37 82.7-82.7 82.7z" fill="#1296db" p-id="600" data-darkreader-inline-fill="" style="--darkreader-inline-fill:#6d9db5;"></path></svg>